FILE "Samurai Spirits - Amakusa Kourin (1996)(SNK)(M4)[h][aka Samurai Shodown IV - Amakusa's Revenge].img" BINARY
  TRACK 01 MODE1/2352
    FLAGS DCP
    INDEX 01 00:00:00
  TRACK 02 AUDIO
    PREGAP 00:02:00
    FLAGS DCP
    INDEX 00 06:11:36
    INDEX 01 06:12:36
  TRACK 03 AUDIO
    FLAGS DCP
    INDEX 01 06:37:03
  TRACK 04 AUDIO
    FLAGS DCP
    INDEX 01 06:49:22
  TRACK 05 AUDIO
    FLAGS DCP
    INDEX 01 07:34:24
  TRACK 06 AUDIO
    FLAGS DCP
    INDEX 01 07:49:23
  TRACK 07 AUDIO
    FLAGS DCP
    INDEX 01 08:14:33
  TRACK 08 AUDIO
    FLAGS DCP
    INDEX 01 10:39:34
  TRACK 09 AUDIO
    FLAGS DCP
    INDEX 01 13:04:47
  TRACK 10 AUDIO
    FLAGS DCP
    INDEX 01 15:29:48
  TRACK 11 AUDIO
    FLAGS DCP
    INDEX 01 17:19:40
  TRACK 12 AUDIO
    FLAGS DCP
    INDEX 01 17:34:39
  TRACK 13 AUDIO
    FLAGS DCP
    INDEX 01 17:59:49
  TRACK 14 AUDIO
    FLAGS DCP
    INDEX 01 20:50:03
  TRACK 15 AUDIO
    FLAGS DCP
    INDEX 01 23:17:47
  TRACK 16 AUDIO
    FLAGS DCP
    INDEX 01 24:13:48
  TRACK 17 AUDIO
    FLAGS DCP
    INDEX 01 26:50:31
  TRACK 18 AUDIO
    FLAGS DCP
    INDEX 01 27:05:30
  TRACK 19 AUDIO
    FLAGS DCP
    INDEX 01 27:30:40
  TRACK 20 AUDIO
    FLAGS DCP
    INDEX 01 29:56:56
  TRACK 21 AUDIO
    FLAGS DCP
    INDEX 01 32:24:56
  TRACK 22 AUDIO
    FLAGS DCP
    INDEX 01 34:13:48
  TRACK 23 AUDIO
    FLAGS DCP
    INDEX 01 34:29:49
  TRACK 24 AUDIO
    FLAGS DCP
    INDEX 01 36:52:52
  TRACK 25 AUDIO
    FLAGS DCP
    INDEX 01 37:07:51
  TRACK 26 AUDIO
    FLAGS DCP
    INDEX 01 37:32:61
  TRACK 27 AUDIO
    FLAGS DCP
    INDEX 01 39:19:74
  TRACK 28 AUDIO
    FLAGS DCP
    INDEX 01 40:15:07
  TRACK 29 AUDIO
    FLAGS DCP
    INDEX 01 42:43:29
  TRACK 30 AUDIO
    FLAGS DCP
    INDEX 01 45:08:30
  TRACK 31 AUDIO
    FLAGS DCP
    INDEX 01 45:23:29
  TRACK 32 AUDIO
    FLAGS DCP
    INDEX 01 45:48:39
  TRACK 33 AUDIO
    FLAGS DCP
    INDEX 01 48:13:40
  TRACK 34 AUDIO
    FLAGS DCP
    INDEX 01 50:38:41
  TRACK 35 AUDIO
    FLAGS DCP
    INDEX 01 53:03:42
  TRACK 36 AUDIO
    FLAGS DCP
    INDEX 01 55:28:43
  TRACK 37 AUDIO
    FLAGS DCP
    INDEX 01 55:43:42
  TRACK 38 AUDIO
    FLAGS DCP
    INDEX 01 56:08:52
  TRACK 39 AUDIO
    FLAGS DCP
    INDEX 01 57:03:53
  TRACK 40 AUDIO
    FLAGS DCP
    INDEX 01 59:11:45
  TRACK 41 AUDIO
    FLAGS DCP
    INDEX 01 59:53:61
  TRACK 42 AUDIO
    FLAGS DCP
    INDEX 01 62:12:35
  TRACK 43 AUDIO
    FLAGS DCP
    INDEX 01 62:29:71
  TRACK 44 AUDIO
    FLAGS DCP
    INDEX 01 64:55:23
  TRACK 45 AUDIO
    FLAGS DCP
    INDEX 01 65:40:56
  TRACK 46 AUDIO
    FLAGS DCP
    INDEX 01 66:52:01
  TRACK 47 AUDIO
    FLAGS DCP
    INDEX 01 68:47:06
  TRACK 48 AUDIO
    FLAGS DCP
    INDEX 01 68:58:55
